<svg t="1724211295855" class="icon" viewBox="0 0 1024 1024" version="1.1" xmlns="http://www.w3.org/2000/svg" p-id="1486"
  xmlns:xlink="http://www.w3.org/1999/xlink" width="200" height="200">
  <path
    d="M738.23 486.55c-12.17-32.17-39.55-91.63-93.44-155.49a575.097 575.097 0 0 0-19.4-21.85c-56.34-60.69-124.6-109.38-203.93-145.56-7.17-3.33-14.44-6.5-21.81-9.53C435.12 143 472.87 137 512 137c91.38 0 175.13 32.68 240.2 87.03 13.39 91.39 8.73 179.29-13.97 262.52z"
    p-id="1487" fill="currentColor"></path>
  <path
    d="M602.69 304.92c-34-5.54-100.96-11.79-184.82 3.77-97.48 18.06-188.66 59.33-272.28 123.08 27.28-125.09 116.96-226.85 234.78-271.03h0.02c0.02 0.02 0.04 0.04 0.09 0.04 86.61 34.17 161.03 82.4 222.21 144.14z"
    p-id="1488" fill="currentColor"></path>
  <path
    d="M288.14 494.25c-32.59 92.52-42.46 191.07-29.53 294.17C183.85 719.88 137 621.42 137 512c0-20.54 1.65-40.67 4.84-60.31 68.28-54.24 141.92-93.04 220.04-115.89 5.22-1.52 10.47-2.97 15.71-4.35-21.77 26.69-60.95 81.93-89.45 162.8z"
    p-id="1489" fill="currentColor"></path>
  <path
    d="M622.56 870.44C587.6 881.2 550.48 887 512 887c-90.38 0-173.28-31.96-238.04-85.22-0.16-1.14-0.31-2.25-0.49-3.39-0.56-4.06-1.09-8.13-1.61-12.19-0.49-4.06-0.96-8.1-1.41-12.14l-0.6-6.07c-0.18-1.83-0.36-3.68-0.54-5.54-0.02-0.36-0.07-0.74-0.09-1.09-6.79-76.79-0.51-150.94 18.79-221.72 12.23 32.21 40.54 93.86 96.43 159.06 5.33 6.23 10.78 12.34 16.38 18.33 2.63 2.86 5.33 5.69 8.06 8.5 0.11 0.16 0.27 0.29 0.42 0.42 2.57 2.7 5.2 5.36 7.83 7.95 0.11 0.16 0.22 0.27 0.33 0.33C470.5 787 533.14 829.9 604.77 862.58c5.87 2.7 11.81 5.31 17.79 7.86z"
    p-id="1490" fill="currentColor"></path>
  <path
    d="M877.33 596.98c-28.62 123.48-118.24 223.62-235.4 266.9h-0.02c-84.69-33.91-157.59-81.43-217.77-141.96-0.2-0.2-0.4-0.4-0.58-0.6 34.02 5.54 100.96 11.79 184.8-3.77 8.5-1.58 16.96-3.33 25.38-5.27 5.87-1.36 11.7-2.79 17.52-4.31 1.56-0.4 3.15-0.83 4.73-1.27 0.36-0.09 0.74-0.18 1.09-0.29 78.02-21.15 151.66-57.76 220.25-109.43z"
    p-id="1491" fill="currentColor"></path>
  <path
    d="M887 512c0 22.12-1.92 43.82-5.6 64.89-5.02 3.97-10.09 7.83-15.16 11.63-1.96 1.47-3.95 2.92-5.94 4.38-59.42 43.26-122.72 75.22-189.29 95.56-2.23 0.67-4.44 1.34-6.67 1.99-5.22 1.52-10.47 2.97-15.71 4.35 21.79-26.7 60.8-81.72 89.29-162.34 32.75-92.7 42.66-191.47 29.69-294.82C841.06 306.06 887 403.67 887 512z"
    p-id="1492" fill="currentColor"></path>
</svg>